Exact Audio Copy V0.99 prebeta 1 from 25. May 2007

EAC 抓取日志文件从21. 十月 2010, 0:11

姜嘉锵 / 20世纪中华歌坛名人百集珍藏版

使用驱动器  ：BENQ    DVD-ROM 16X   Adapter: 0  ID: 1

读取模式     : 保护
使用精确流   : 是
废除音频缓冲 : 是
使用 C2 指针 : 否

读取偏移校正                   : 738
读取 Lead-In 和 Lead-Out       : 否
用静音填充抓取中丢失偏移的采样 : 是
去除首尾静音块                 : 否
已用接口                       : 已安装外部 ASPI 接口

所用输出格式 : 内部 WAV 函数
样本格式     : 44.100 Hz;16 Bit;立体声


被抓轨 CD 的 TOC

     音轨 |   开始   |   长度   | 起始扇区 | 结尾扇区 
    --------------------------------------------------
       1  |  0:00.32 |  4:45.40 |      32  |   21446  
       2  |  4:45.72 |  4:45.00 |   21447  |   42821  
       3  |  9:30.72 |  2:30.48 |   42822  |   54119  
       4  | 12:01.45 |  6:10.10 |   54120  |   81879  
       5  | 18:11.55 |  2:52.50 |   81880  |   94829  
       6  | 21:04.30 |  4:05.45 |   94830  |  113249  
       7  | 25:10.00 |  3:42.30 |  113250  |  129929  
       8  | 28:52.30 |  3:41.00 |  129930  |  146504  
       9  | 32:33.30 |  3:21.25 |  146505  |  161604  
      10  | 35:54.55 |  3:40.72 |  161605  |  178176  
      11  | 39:35.52 |  3:37.53 |  178177  |  194504  
      12  | 43:13.30 |  4:46.17 |  194505  |  215971  
      13  | 47:59.47 |  7:53.65 |  215972  |  251511  
      14  | 55:53.37 |  3:40.55 |  251512  |  268066  
      15  | 59:34.17 |  3:43.10 |  268067  |  284801  
      16  | 63:17.27 |  3:23.08 |  284802  |  300034  


范围状态及错误

已选择范围

     文件名 E:\文件夹\20世纪中华歌坛名人百集珍藏版-姜嘉锵[lwg188原创]\姜嘉锵 - 20世纪中华歌坛名人百集珍藏版.wav

     峰值电平 100.0 %
     范围质量 100.0 %
     复制 CRC B7DDE963
     复制成功

没有错误发生

状态报告结尾
